<?xml version="1.0" encoding="UTF-8"?><svg viewBox="0 0 24.964 25" xmlns="http://www.w3.org/2000/svg"><path d="M17.014 3.205a24.33 24.33 0 0 1-.73 4.416 19.424 19.424 0 0 1-1.622 4.179c-.353.66-.748 1.3-1.187 1.906-.44.606-.923 1.18-1.444 1.714-.174.178-.353.35-.534.52.058.013.116.027.175.038l.588.117c.393.076.784.164 1.18.222 1.017.18 2.043.315 3.073.417.125-.083.25-.166.373-.252.643-.454 1.273-.933 1.848-1.472.573-.534 1.108-1.1 1.577-1.723.46-.626.866-1.294 1.189-2.005.903-1.977 1.15-4.25.837-6.477A12.534 12.534 0 0 0 17.085.888l.001.076c.008.75-.018 1.497-.072 2.241M5.274 18.892c.164-.068.33-.13.491-.203l.484-.22a16.455 16.455 0 0 0 1.852-1.022 16.19 16.19 0 0 0 1.1-.779l-1.064-.238-.299-.078-.597-.16c-.398-.107-.8-.207-1.19-.337l-1.183-.371-1.167-.422c-.194-.071-.39-.139-.582-.214l-.574-.24c-.38-.16-.767-.313-1.145-.483L.276 13.59l-.236-.113a12.43 12.43 0 0 0 2.31 6.334c.65-.155 1.293-.336 1.925-.548.333-.123.672-.232.999-.372"/><path d="M.575 11.745c.084.053.17.101.257.147l.261.141 1.044.567c.352.181.712.346 1.068.52l.536.259c.181.082.365.156.547.235l1.097.465 1.118.417c.37.146.751.263 1.13.386l.568.185.285.092.288.08 1.153.323c.144.038.29.072.435.107.316-.305.62-.622.906-.953A14.445 14.445 0 0 0 13.5 11.22c.578-1.26.991-2.593 1.265-3.954.276-1.362.41-2.753.43-4.143a24.689 24.689 0 0 0-.124-2.838 12.546 12.546 0 0 0-2.566-.264C5.971.021.608 5.036.056 11.427l.013.009zM12.077 17.186l-.61-.087c-.203-.028-.404-.071-.606-.106l-.494-.09c-.594.45-1.217.853-1.86 1.216-.643.366-1.316.67-1.995.948L6 19.264c-.172.065-.347.12-.52.18-.345.123-.7.214-1.049.32a23.18 23.18 0 0 1-1.809.406c.11.141.222.28.337.416l.424-.022c.399-.026.797-.054 1.194-.088.199-.014.397-.037.595-.058.199-.02.398-.036.595-.062 3.166-.354 6.294-1.187 9.099-2.652.107-.056.213-.115.319-.172a38.346 38.346 0 0 1-1.886-.184c-.41-.037-.814-.106-1.22-.162M18.191 17.656l-.094-.002c-.075.06-.148.12-.224.179a19.008 19.008 0 0 1-2.147 1.439c-.37.22-.754.416-1.135.617-.387.186-.772.379-1.168.545-.392.178-.794.327-1.193.484-.404.145-.807.291-1.216.418a25.73 25.73 0 0 1-2.48.66c-.837.177-1.678.336-2.526.433-.331.041-.663.074-.996.101a12.444 12.444 0 0 0 7.489 2.49c5.18 0 9.624-3.15 11.52-7.64a50.21 50.21 0 0 1-5.83.276M23.223 9.211c-.107.857-.31 1.706-.61 2.525a11.678 11.678 0 0 1-1.167 2.342 13.85 13.85 0 0 1-1.64 2.034c-.267.28-.547.547-.835.806a49.61 49.61 0 0 0 5.24-.018c.51-1.363.79-2.838.79-4.379a12.44 12.44 0 0 0-1.827-6.507 9.5 9.5 0 0 1 .074.629c.08.848.078 1.71-.025 2.568"/></svg>